<svg xmlns="http://www.w3.org/2000/svg" xmlns:xlink="http://www.w3.org/1999/xlink" width="80" zoomAndPan="magnify" viewBox="0 0 60 60" height="80" preserveAspectRatio="xMidYMid meet" version="1.0"><defs><clipPath id="8ef4443efa"><path d="M 0.675781 0.746094 L 59.925781 0.746094 L 59.925781 59.996094 L 0.675781 59.996094 Z M 0.675781 0.746094 " clip-rule="nonzero"/></clipPath></defs><g clip-path="url(#8ef4443efa)"><path fill="#ffffff" d="M 30.300781 0.746094 C 13.949219 0.746094 0.675781 14.019531 0.675781 30.371094 C 0.675781 46.722656 13.949219 59.996094 30.300781 59.996094 C 46.652344 59.996094 59.925781 46.722656 59.925781 30.371094 C 59.925781 14.019531 46.652344 0.746094 30.300781 0.746094 Z M 30.300781 5.304688 C 44.136719 5.304688 55.367188 16.535156 55.367188 30.371094 C 55.367188 44.207031 44.136719 55.4375 30.300781 55.4375 C 16.464844 55.4375 5.234375 44.207031 5.234375 30.371094 C 5.234375 16.535156 16.464844 5.304688 30.300781 5.304688 Z M 24.132812 18.308594 L 36.191406 30.371094 C 36.191406 30.371094 24.132812 42.433594 24.132812 42.433594 C 23.242188 43.320312 23.242188 44.765625 24.132812 45.65625 C 25.019531 46.542969 26.464844 46.542969 27.351562 45.65625 L 41.027344 31.980469 C 41.917969 31.09375 41.917969 29.648438 41.027344 28.757812 L 27.351562 15.085938 C 26.464844 14.199219 25.019531 14.199219 24.132812 15.085938 C 23.242188 15.976562 23.242188 17.417969 24.132812 18.308594 Z M 24.132812 18.308594 " fill-opacity="1" fill-rule="evenodd"/></g></svg>