<svg xmlns="http://www.w3.org/2000/svg" xmlns:xlink="http://www.w3.org/1999/xlink" width="80" zoomAndPan="magnify" viewBox="0 0 60 60" height="80" preserveAspectRatio="xMidYMid meet" version="1.0"><path fill="#ffffff" d="M 30.015625 0 C 29.03125 0 28.050781 0.0507812 27.074219 0.144531 C 26.09375 0.242188 25.125 0.386719 24.160156 0.578125 C 23.195312 0.769531 22.246094 1.007812 21.304688 1.292969 C 20.363281 1.582031 19.441406 1.910156 18.53125 2.289062 C 17.625 2.664062 16.738281 3.085938 15.871094 3.546875 C 15.003906 4.011719 14.164062 4.515625 13.347656 5.0625 C 12.53125 5.609375 11.742188 6.191406 10.984375 6.816406 C 10.222656 7.441406 9.496094 8.101562 8.800781 8.792969 C 8.105469 9.488281 7.449219 10.21875 6.824219 10.976562 C 6.203125 11.738281 5.617188 12.523438 5.070312 13.34375 C 4.527344 14.160156 4.023438 15 3.558594 15.867188 C 3.097656 16.734375 2.675781 17.621094 2.300781 18.53125 C 1.925781 19.4375 1.59375 20.363281 1.308594 21.304688 C 1.023438 22.242188 0.785156 23.195312 0.59375 24.160156 C 0.402344 25.125 0.261719 26.09375 0.164062 27.070312 C 0.0664062 28.050781 0.0195312 29.03125 0.0195312 30.011719 C 0.0195312 30.996094 0.0703125 31.976562 0.167969 32.953125 C 0.261719 33.929688 0.40625 34.902344 0.597656 35.867188 C 0.789062 36.828125 1.03125 37.78125 1.316406 38.722656 C 1.601562 39.660156 1.933594 40.585938 2.308594 41.492188 C 2.683594 42.402344 3.105469 43.289062 3.566406 44.15625 C 4.03125 45.019531 4.535156 45.863281 5.082031 46.679688 C 5.628906 47.496094 6.214844 48.285156 6.835938 49.042969 C 7.460938 49.804688 8.121094 50.53125 8.816406 51.226562 C 9.507812 51.917969 10.238281 52.578125 10.996094 53.203125 C 11.757812 53.824219 12.546875 54.410156 13.363281 54.957031 C 14.179688 55.5 15.019531 56.003906 15.886719 56.46875 C 16.753906 56.929688 17.640625 57.351562 18.550781 57.726562 C 19.457031 58.101562 20.382812 58.433594 21.324219 58.71875 C 22.261719 59.003906 23.214844 59.242188 24.179688 59.433594 C 25.144531 59.625 26.113281 59.765625 27.089844 59.863281 C 28.070312 59.960938 29.050781 60.007812 30.03125 60.007812 C 31.015625 60.007812 31.996094 59.957031 32.972656 59.863281 C 33.949219 59.765625 34.921875 59.621094 35.886719 59.429688 C 36.847656 59.238281 37.800781 59 38.742188 58.710938 C 39.679688 58.425781 40.605469 58.097656 41.511719 57.71875 C 42.421875 57.34375 43.308594 56.925781 44.175781 56.460938 C 45.039062 55.996094 45.882812 55.492188 46.699219 54.945312 C 47.515625 54.398438 48.304688 53.816406 49.0625 53.191406 C 49.824219 52.566406 50.550781 51.910156 51.246094 51.214844 C 51.941406 50.519531 52.597656 49.792969 53.222656 49.03125 C 53.84375 48.273438 54.429688 47.484375 54.976562 46.667969 C 55.519531 45.847656 56.023438 45.007812 56.488281 44.140625 C 56.953125 43.273438 57.371094 42.386719 57.746094 41.480469 C 58.121094 40.570312 58.453125 39.648438 58.738281 38.707031 C 59.023438 37.765625 59.261719 36.8125 59.453125 35.851562 C 59.644531 34.886719 59.789062 33.914062 59.882812 32.9375 C 59.980469 31.960938 60.027344 30.980469 60.027344 29.996094 C 60.027344 29.015625 59.976562 28.035156 59.878906 27.058594 C 59.78125 26.078125 59.632812 25.109375 59.441406 24.148438 C 59.246094 23.183594 59.007812 22.230469 58.722656 21.292969 C 58.433594 20.351562 58.101562 19.429688 57.726562 18.523438 C 57.347656 17.617188 56.929688 16.730469 56.464844 15.863281 C 56 14.996094 55.496094 14.15625 54.949219 13.339844 C 54.402344 12.523438 53.820312 11.738281 53.195312 10.976562 C 52.570312 10.21875 51.914062 9.492188 51.21875 8.796875 C 50.523438 8.101562 49.796875 7.445312 49.035156 6.820312 C 48.277344 6.199219 47.488281 5.613281 46.671875 5.070312 C 45.855469 4.523438 45.015625 4.019531 44.148438 3.554688 C 43.28125 3.089844 42.394531 2.671875 41.488281 2.296875 C 40.582031 1.917969 39.65625 1.585938 38.71875 1.300781 C 37.777344 1.015625 36.828125 0.777344 35.863281 0.582031 C 34.902344 0.390625 33.929688 0.246094 32.953125 0.148438 C 31.976562 0.0507812 30.996094 0 30.015625 0 Z M 38.300781 55.3125 C 36.996094 55.578125 36.519531 54.777344 36.519531 54.085938 C 36.519531 53.207031 36.554688 50.410156 36.554688 46.925781 C 36.554688 44.511719 35.734375 42.929688 34.796875 42.125 C 40.578125 41.472656 46.664062 39.273438 46.664062 29.277344 C 46.683594 27.984375 46.460938 26.734375 46 25.527344 C 45.535156 24.320312 44.863281 23.242188 43.984375 22.292969 C 44.25 21.640625 45.167969 18.980469 43.734375 15.390625 C 43.734375 15.390625 41.550781 14.679688 36.578125 18.046875 C 34.449219 17.476562 32.28125 17.1875 30.078125 17.1875 C 27.875 17.1875 25.707031 17.476562 23.578125 18.046875 C 18.605469 14.71875 16.417969 15.390625 16.417969 15.390625 C 15.003906 18.964844 15.90625 21.628906 16.171875 22.292969 C 15.296875 23.246094 14.628906 24.324219 14.171875 25.53125 C 13.710938 26.738281 13.492188 27.988281 13.511719 29.277344 C 13.511719 39.230469 19.558594 41.472656 25.339844 42.125 C 24.59375 42.773438 23.902344 43.902344 23.675781 45.609375 C 22.179688 46.277344 18.449219 47.386719 16.113281 43.464844 C 15.617188 42.675781 14.160156 40.765625 12.113281 40.785156 C 9.933594 40.824219 11.234375 42.027344 12.132812 42.511719 C 13.242188 43.144531 14.507812 45.4375 14.8125 46.183594 C 15.328125 47.660156 17.011719 50.449219 23.539062 49.246094 C 23.539062 51.429688 23.578125 53.480469 23.578125 54.078125 C 23.578125 54.769531 23.101562 55.53125 21.796875 55.304688 C 20.832031 54.980469 19.890625 54.601562 18.96875 54.167969 C 18.046875 53.734375 17.15625 53.246094 16.292969 52.707031 C 15.429688 52.167969 14.601562 51.582031 13.804688 50.945312 C 13.011719 50.308594 12.257812 49.628906 11.542969 48.902344 C 10.828125 48.175781 10.160156 47.414062 9.535156 46.609375 C 8.910156 45.804688 8.335938 44.96875 7.808594 44.097656 C 7.285156 43.222656 6.808594 42.324219 6.390625 41.398438 C 5.96875 40.472656 5.605469 39.523438 5.296875 38.550781 C 4.988281 37.582031 4.738281 36.597656 4.542969 35.597656 C 4.351562 34.597656 4.21875 33.589844 4.144531 32.574219 C 4.070312 31.5625 4.054688 30.546875 4.097656 29.527344 C 4.144531 28.511719 4.25 27.5 4.414062 26.496094 C 4.574219 25.492188 4.796875 24.5 5.078125 23.519531 C 5.359375 22.542969 5.695312 21.582031 6.089844 20.644531 C 6.480469 19.707031 6.929688 18.792969 7.429688 17.90625 C 7.929688 17.019531 8.480469 16.167969 9.082031 15.34375 C 9.679688 14.523438 10.328125 13.738281 11.019531 12.992188 C 11.714844 12.246094 12.449219 11.546875 13.222656 10.886719 C 14 10.226562 14.8125 9.613281 15.660156 9.050781 C 16.507812 8.488281 17.382812 7.976562 18.292969 7.515625 C 19.199219 7.054688 20.128906 6.648438 21.085938 6.296875 C 22.042969 5.945312 23.015625 5.652344 24.003906 5.414062 C 24.992188 5.175781 25.996094 5 27.003906 4.878906 C 28.015625 4.761719 29.03125 4.699219 30.046875 4.699219 C 31.066406 4.699219 32.082031 4.761719 33.089844 4.878906 C 34.101562 5 35.101562 5.175781 36.09375 5.414062 C 37.082031 5.652344 38.054688 5.945312 39.011719 6.296875 C 39.964844 6.648438 40.898438 7.054688 41.804688 7.515625 C 42.714844 7.976562 43.589844 8.488281 44.4375 9.050781 C 45.285156 9.613281 46.097656 10.226562 46.871094 10.886719 C 47.648438 11.546875 48.382812 12.246094 49.074219 12.992188 C 49.769531 13.738281 50.414062 14.523438 51.015625 15.34375 C 51.617188 16.167969 52.167969 17.019531 52.667969 17.90625 C 53.167969 18.792969 53.613281 19.707031 54.007812 20.644531 C 54.402344 21.582031 54.738281 22.542969 55.019531 23.519531 C 55.296875 24.5 55.519531 25.492188 55.683594 26.496094 C 55.847656 27.5 55.953125 28.511719 55.996094 29.527344 C 56.042969 30.546875 56.027344 31.5625 55.953125 32.574219 C 55.878906 33.589844 55.746094 34.597656 55.550781 35.597656 C 55.359375 36.597656 55.109375 37.582031 54.800781 38.550781 C 54.492188 39.523438 54.125 40.472656 53.707031 41.398438 C 53.285156 42.324219 52.8125 43.222656 52.289062 44.097656 C 51.761719 44.96875 51.1875 45.804688 50.5625 46.609375 C 49.9375 47.414062 49.269531 48.175781 48.554688 48.902344 C 47.839844 49.628906 47.085938 50.308594 46.289062 50.945312 C 45.496094 51.582031 44.667969 52.167969 43.804688 52.707031 C 42.941406 53.246094 42.046875 53.734375 41.128906 54.167969 C 40.207031 54.601562 39.265625 54.980469 38.300781 55.304688 Z M 38.300781 55.3125 " fill-opacity="1" fill-rule="evenodd"/></svg>