<svg xmlns="http://www.w3.org/2000/svg" width="80" height="80" version="1.0" viewBox="0 0 60 60"><defs><clipPath id="a"><path d="M.676.746h59.25v59.25H.676Zm0 0"/></clipPath></defs><g clip-path="url(#a)"><path fill="#fff" fill-rule="evenodd" d="M30.3.746C13.95.746.677 14.02.677 30.371c0 16.352 13.273 29.625 29.625 29.625 16.351 0 29.625-13.273 29.625-29.625C59.926 14.02 46.652.746 30.3.746Zm0 4.559c13.837 0 25.067 11.23 25.067 25.066 0 13.836-11.23 25.067-25.066 25.067-13.836 0-25.067-11.231-25.067-25.067S16.464 5.305 30.301 5.305Zm-6.167 13.004L36.19 30.37 24.133 42.434a2.277 2.277 0 0 0 3.219 3.222L41.027 31.98c.891-.886.891-2.332 0-3.222L27.352 15.086a2.277 2.277 0 0 0-3.219 3.223Zm0 0"/></g></svg>