<svg xmlns="http://www.w3.org/2000/svg" xmlns:xlink="http://www.w3.org/1999/xlink" width="80" zoomAndPan="magnify" viewBox="0 0 60 60" height="80" preserveAspectRatio="xMidYMid meet" version="1.0"><defs><clipPath id="aee6df8bb5"><path d="M 0.675781 6 L 59.175781 6 L 59.175781 51 L 0.675781 51 Z M 0.675781 6 " clip-rule="nonzero"/></clipPath></defs><path fill="#ffffff" d="M 5.230469 13.496094 C 5.226562 13.507812 5.222656 13.519531 5.222656 13.527344 C 5.226562 13.515625 5.234375 13.496094 5.238281 13.484375 C 5.234375 13.488281 5.234375 13.492188 5.230469 13.496094 Z M 5.230469 13.496094 " fill-opacity="1" fill-rule="nonzero"/><g clip-path="url(#aee6df8bb5)"><path fill="#ffffff" d="M 15.800781 49.179688 C 16.339844 49.578125 16.933594 49.90625 17.578125 50.15625 C 17.605469 50.167969 17.636719 50.175781 17.671875 50.1875 C 18.144531 50.363281 18.640625 50.496094 19.144531 50.582031 C 19.597656 50.660156 20.046875 50.699219 20.488281 50.699219 C 24.292969 50.699219 27.695312 47.976562 28.402344 44.136719 C 28.402344 44.128906 28.417969 44.046875 28.417969 44.039062 C 28.433594 43.957031 28.4375 43.875 28.4375 43.792969 C 28.4375 43.484375 28.335938 43.179688 28.152344 42.929688 L 57.6875 42.929688 C 57.785156 42.929688 57.882812 42.917969 57.976562 42.902344 C 58.019531 42.890625 58.0625 42.875 58.101562 42.863281 C 58.152344 42.847656 58.203125 42.835938 58.253906 42.816406 C 58.300781 42.796875 58.347656 42.769531 58.390625 42.742188 C 58.429688 42.722656 58.46875 42.707031 58.507812 42.683594 C 58.667969 42.574219 58.808594 42.4375 58.914062 42.277344 C 58.9375 42.238281 58.957031 42.199219 58.976562 42.164062 C 59 42.117188 59.03125 42.074219 59.050781 42.023438 C 59.070312 41.972656 59.082031 41.925781 59.097656 41.875 C 59.109375 41.832031 59.125 41.792969 59.132812 41.75 C 59.152344 41.65625 59.164062 41.558594 59.164062 41.460938 L 59.164062 16.910156 C 59.164062 16.097656 58.503906 15.441406 57.691406 15.441406 L 57.578125 15.441406 C 57.570312 15.441406 57.5625 15.4375 57.554688 15.4375 L 17.484375 15.4375 C 17.476562 15.4375 17.46875 15.441406 17.460938 15.441406 L 17.351562 15.441406 C 16.535156 15.441406 15.875 16.097656 15.875 16.910156 L 15.875 35.46875 C 14.460938 33.742188 13.339844 31.820312 12.554688 29.699219 C 12.472656 29.5 12.394531 29.289062 12.320312 29.046875 C 11.648438 27.03125 11.3125 24.945312 11.3125 22.816406 C 11.3125 22.636719 11.3125 22.457031 11.320312 22.277344 L 12.140625 22.417969 C 12.941406 22.554688 13.703125 22.015625 13.839844 21.21875 L 15.773438 9.929688 C 15.773438 9.929688 15.773438 9.929688 15.773438 9.925781 L 15.789062 9.839844 C 15.894531 9.214844 15.574219 8.597656 15.003906 8.304688 C 14.945312 8.273438 14.882812 8.246094 14.820312 8.222656 C 13.839844 7.527344 12.707031 7.058594 11.519531 6.855469 C 8.023438 6.261719 4.601562 7.972656 3 11.109375 C 2.988281 11.132812 2.949219 11.222656 2.9375 11.246094 C 2.929688 11.269531 2.902344 11.335938 2.894531 11.359375 L 2.886719 11.378906 C 2.679688 11.796875 2.53125 12.191406 2.433594 12.582031 C 2.429688 12.585938 2.429688 12.589844 2.429688 12.59375 C 2.429688 12.597656 2.425781 12.601562 2.425781 12.605469 C 1.859375 14.214844 1.425781 15.894531 1.132812 17.597656 C 0.832031 19.34375 0.683594 21.089844 0.683594 22.824219 C 0.683594 29.238281 2.703125 35.46875 6.566406 40.78125 C 9.0625 44.207031 12.167969 47.03125 15.800781 49.179688 Z M 18.824219 19.871094 L 28.726562 27.84375 L 20.355469 36.179688 L 19.445312 35.398438 C 19.273438 35.246094 19.058594 35.140625 18.824219 35.078125 Z M 56.214844 37.921875 L 46.191406 27.941406 L 56.214844 19.871094 Z M 53.382812 18.375 L 37.519531 31.148438 L 21.652344 18.375 Z M 31.03125 29.699219 L 36.59375 34.175781 C 36.863281 34.394531 37.191406 34.503906 37.519531 34.503906 C 37.847656 34.503906 38.175781 34.394531 38.445312 34.175781 L 43.886719 29.796875 L 54.132812 39.996094 L 24.796875 39.996094 L 22.59375 38.101562 Z M 4.035156 18.089844 C 4.296875 16.570312 4.679688 15.074219 5.179688 13.640625 C 5.195312 13.605469 5.207031 13.566406 5.21875 13.53125 C 5.21875 13.535156 5.214844 13.539062 5.214844 13.542969 C 5.214844 13.539062 5.21875 13.535156 5.21875 13.527344 C 5.222656 13.519531 5.226562 13.507812 5.230469 13.496094 C 5.238281 13.480469 5.246094 13.460938 5.25 13.441406 L 5.652344 12.390625 C 6.675781 10.4375 8.828125 9.375 11.023438 9.75 C 11.617188 9.851562 12.1875 10.058594 12.710938 10.355469 L 11.179688 19.277344 L 10.207031 19.113281 C 9.8125 19.046875 9.410156 19.140625 9.085938 19.378906 C 8.765625 19.613281 8.550781 19.96875 8.5 20.367188 C 8.464844 20.632812 8.4375 20.90625 8.421875 21.15625 C 8.382812 21.714844 8.363281 22.269531 8.363281 22.824219 C 8.363281 25.253906 8.75 27.648438 9.511719 29.9375 C 9.597656 30.210938 9.699219 30.492188 9.796875 30.738281 C 10.933594 33.8125 12.683594 36.566406 15 38.925781 C 15.0625 38.988281 15.128906 39.042969 15.199219 39.09375 L 15.398438 39.234375 C 15.90625 39.59375 16.589844 39.59375 17.101562 39.234375 L 18.363281 38.34375 L 25.316406 44.320312 C 24.53125 46.636719 22.125 48.113281 19.640625 47.691406 C 19.3125 47.636719 18.996094 47.550781 18.695312 47.4375 C 18.261719 47.207031 17.839844 46.972656 17.417969 46.726562 C 17.417969 46.726562 17.417969 46.726562 17.414062 46.722656 C 17.390625 46.707031 17.367188 46.691406 17.339844 46.675781 C 14.039062 44.734375 11.214844 42.167969 8.953125 39.058594 C 5.457031 34.253906 3.628906 28.617188 3.632812 22.820312 C 3.632812 21.25 3.765625 19.667969 4.035156 18.089844 Z M 4.035156 18.089844 " fill-opacity="1" fill-rule="nonzero"/></g></svg>