<svg xmlns="http://www.w3.org/2000/svg" width="80" height="80" version="1.0" viewBox="0 0 60 60"><path fill="#fff" fill-rule="evenodd" d="M30.016 0c-.985 0-1.965.05-2.942.145a29.906 29.906 0 0 0-5.77 1.148 30.45 30.45 0 0 0-5.433 2.254 29.958 29.958 0 0 0-4.887 3.27 30.846 30.846 0 0 0-2.183 1.976 30.756 30.756 0 0 0-1.977 2.184 30.63 30.63 0 0 0-1.754 2.367 30.993 30.993 0 0 0-1.511 2.523A30.137 30.137 0 0 0 .594 24.16a30.557 30.557 0 0 0-.43 2.91 29.657 29.657 0 0 0 .004 5.883 29.434 29.434 0 0 0 1.148 5.77 30.347 30.347 0 0 0 2.25 5.433c.465.864.97 1.707 1.516 2.524a29.976 29.976 0 0 0 8.281 8.277 30.993 30.993 0 0 0 2.524 1.512 30.137 30.137 0 0 0 8.293 2.965c.965.191 1.933.332 2.91.43.98.097 1.96.144 2.941.144.985 0 1.965-.051 2.942-.145a30.65 30.65 0 0 0 2.914-.433c.96-.192 1.914-.43 2.855-.72a29.22 29.22 0 0 0 2.77-.991 29.07 29.07 0 0 0 2.664-1.258 30.595 30.595 0 0 0 2.523-1.516 29.582 29.582 0 0 0 2.364-1.754 29.924 29.924 0 0 0 2.183-1.976 30.563 30.563 0 0 0 3.73-4.547c.544-.82 1.047-1.66 1.512-2.527.465-.868.883-1.754 1.258-2.66a30.202 30.202 0 0 0 1.707-5.629c.192-.965.336-1.938.43-2.915a29.54 29.54 0 0 0-.004-5.878 30.21 30.21 0 0 0-1.156-5.766 31.144 31.144 0 0 0-.996-2.77 29.958 29.958 0 0 0-4.531-7.547 29.923 29.923 0 0 0-6.523-5.906 29.493 29.493 0 0 0-5.184-2.773 29.246 29.246 0 0 0-2.77-.996 31.145 31.145 0 0 0-2.856-.719A30.384 30.384 0 0 0 30.016 0ZM38.3 55.313c-1.305.265-1.781-.536-1.781-1.227 0-.879.035-3.676.035-7.16 0-2.414-.82-3.996-1.758-4.801 5.781-.652 11.867-2.852 11.867-12.848a10.017 10.017 0 0 0-2.68-6.984c.266-.652 1.184-3.313-.25-6.902 0 0-2.183-.711-7.156 2.656a25.023 25.023 0 0 0-13 0c-4.973-3.328-7.16-2.656-7.16-2.656-1.414 3.574-.512 6.238-.246 6.902a9.966 9.966 0 0 0-2 3.238 9.986 9.986 0 0 0-.66 3.746c0 9.953 6.047 12.196 11.828 12.848-.746.648-1.438 1.777-1.664 3.484-1.496.668-5.227 1.778-7.563-2.144-.496-.79-1.953-2.7-4-2.68-2.18.04-.879 1.242.02 1.727 1.11.633 2.375 2.925 2.68 3.672.515 1.476 2.199 4.265 8.726 3.062 0 2.184.04 4.234.04 4.832 0 .692-.477 1.453-1.782 1.227a26.376 26.376 0 0 1-2.828-1.137 26.263 26.263 0 0 1-5.164-3.223 26.033 26.033 0 0 1-7.414-9.547 25.332 25.332 0 0 1-1.094-2.847 26.377 26.377 0 0 1-.754-2.953 26.243 26.243 0 0 1-.445-6.07c.047-1.016.152-2.028.316-3.032a25.17 25.17 0 0 1 .664-2.976c.281-.977.617-1.938 1.012-2.875a26.014 26.014 0 0 1 7.133-9.758 25.823 25.823 0 0 1 5.07-3.371c.906-.461 1.836-.868 2.793-1.22a26.08 26.08 0 0 1 8.96-1.598 26.145 26.145 0 0 1 8.965 1.598 26.035 26.035 0 0 1 5.426 2.755c.848.562 1.66 1.176 2.434 1.836a25.95 25.95 0 0 1 7.137 9.758c.394.937.73 1.898 1.012 2.875.277.98.5 1.972.664 2.976.164 1.004.27 2.016.312 3.031.047 1.02.031 2.035-.043 3.047a25.42 25.42 0 0 1-.402 3.024 25.54 25.54 0 0 1-.75 2.953 26.107 26.107 0 0 1-2.512 5.547 26.243 26.243 0 0 1-3.734 4.804 25.523 25.523 0 0 1-2.266 2.043 26.105 26.105 0 0 1-7.988 4.36Zm0 0"/></svg>