<svg xmlns="http://www.w3.org/2000/svg" width="80" height="80" version="1.0" viewBox="0 0 60 60"><path fill="#fff" d="M54.988 0H5.043A4.99 4.99 0 0 0 .059 4.984v50.032C.059 57.777 2.312 60 5.043 60h49.914a4.99 4.99 0 0 0 4.984-4.984V4.984C59.97 2.25 57.75 0 54.988 0ZM17.801 49.496H8.945V22.902h8.856Zm-4.446-29.805a5.038 5.038 0 0 1-5.043-5.043 5.035 5.035 0 0 1 5.043-5.043 5.033 5.033 0 0 1 5.043 5.043c0 2.79-2.25 5.043-5.043 5.043Zm37.762 29.805H42.23l-.21-15.789s.21-4.203-4.38-4.172c-4.593.031-5.222 4.172-5.222 4.172v15.79h-8.945V22.901h8.582v3.66s.363-1.199 2.343-2.609 5.25-1.71 6.66-1.652c1.415.058 3.333-.18 6.547 2.043 3.45 2.37 3.54 8.582 3.54 8.582Zm0 0"/></svg>