<svg xmlns="http://www.w3.org/2000/svg" xmlns:xlink="http://www.w3.org/1999/xlink" width="80" zoomAndPan="magnify" viewBox="0 0 60 60" height="80" preserveAspectRatio="xMidYMid meet" version="1.0"><path fill="#ffffff" d="M 54.988281 0 L 5.042969 0 C 2.28125 0 0.0585938 2.25 0.0585938 4.984375 L 0.0585938 55.015625 C 0.0585938 57.777344 2.3125 60 5.042969 60 L 54.957031 60 C 57.71875 60 59.941406 57.75 59.941406 55.015625 L 59.941406 4.984375 C 59.96875 2.25 57.75 0 54.988281 0 Z M 17.800781 49.496094 L 8.945312 49.496094 L 8.945312 22.902344 L 17.800781 22.902344 Z M 13.355469 19.691406 C 10.566406 19.691406 8.3125 17.4375 8.3125 14.648438 C 8.3125 11.855469 10.566406 9.605469 13.355469 9.605469 C 16.148438 9.605469 18.398438 11.855469 18.398438 14.648438 C 18.398438 17.4375 16.148438 19.691406 13.355469 19.691406 Z M 51.117188 49.496094 L 42.230469 49.496094 L 42.019531 33.707031 C 42.019531 33.707031 42.230469 29.503906 37.640625 29.535156 C 33.046875 29.566406 32.417969 33.707031 32.417969 33.707031 L 32.417969 49.496094 L 23.472656 49.496094 L 23.472656 22.902344 L 32.054688 22.902344 L 32.054688 26.5625 C 32.054688 26.5625 32.417969 25.363281 34.398438 23.953125 C 36.378906 22.542969 39.648438 22.242188 41.058594 22.300781 C 42.472656 22.359375 44.390625 22.121094 47.605469 24.34375 C 51.054688 26.714844 51.144531 32.925781 51.144531 32.925781 Z M 51.117188 49.496094 " fill-opacity="1" fill-rule="nonzero"/></svg>