<svg xmlns="http://www.w3.org/2000/svg" xmlns:xlink="http://www.w3.org/1999/xlink" width="60" zoomAndPan="magnify" viewBox="0 0 45 30.000001" height="40" preserveAspectRatio="xMidYMid meet" version="1.0"><defs><clipPath id="e051eeb867"><path d="M 22 11 L 44.273438 11 L 44.273438 14 L 22 14 Z M 22 11 " clip-rule="nonzero"/></clipPath><clipPath id="bcdcca0675"><path d="M 0.726562 15 L 44.273438 15 L 44.273438 29.03125 L 0.726562 29.03125 Z M 0.726562 15 " clip-rule="nonzero"/></clipPath><clipPath id="2522cd5671"><path d="M 22 6 L 44.273438 6 L 44.273438 9 L 22 9 Z M 22 6 " clip-rule="nonzero"/></clipPath><clipPath id="79c7942958"><path d="M 22 2 L 44.273438 2 L 44.273438 5 L 22 5 Z M 22 2 " clip-rule="nonzero"/></clipPath><clipPath id="6ffd3805aa"><path d="M 0.726562 17 L 44.273438 17 L 44.273438 21 L 0.726562 21 Z M 0.726562 17 " clip-rule="nonzero"/></clipPath><clipPath id="989e47cae5"><path d="M 22 13 L 44.273438 13 L 44.273438 16 L 22 16 Z M 22 13 " clip-rule="nonzero"/></clipPath><clipPath id="d119d2f6fd"><path d="M 22 8 L 44.273438 8 L 44.273438 12 L 22 12 Z M 22 8 " clip-rule="nonzero"/></clipPath><clipPath id="a29e45d52c"><path d="M 22 4 L 44.273438 4 L 44.273438 7 L 22 7 Z M 22 4 " clip-rule="nonzero"/></clipPath><clipPath id="218a5fa6cb"><path d="M 22 0 L 44.273438 0 L 44.273438 3 L 22 3 Z M 22 0 " clip-rule="nonzero"/></clipPath><clipPath id="c372169665"><path d="M 0.726562 22 L 44.273438 22 L 44.273438 25 L 0.726562 25 Z M 0.726562 22 " clip-rule="nonzero"/></clipPath><clipPath id="03acbe3fc7"><path d="M 0.726562 26 L 44.273438 26 L 44.273438 29.03125 L 0.726562 29.03125 Z M 0.726562 26 " clip-rule="nonzero"/></clipPath><clipPath id="c837630f3d"><path d="M 0.726562 0 L 23 0 L 23 16 L 0.726562 16 Z M 0.726562 0 " clip-rule="nonzero"/></clipPath></defs><g clip-path="url(#e051eeb867)"><path fill="#ffffff" d="M 22.847656 13.398438 L 44.261719 13.398438 L 44.261719 11.164062 L 22.847656 11.164062 L 22.847656 13.398438 " fill-opacity="1" fill-rule="nonzero"/></g><g clip-path="url(#bcdcca0675)"><path fill="#ffffff" d="M 22.847656 15.644531 L 0.75 15.644531 L 0.75 17.867188 L 44.261719 17.867188 L 44.261719 20.101562 L 0.75 20.101562 L 0.75 22.332031 L 44.261719 22.332031 L 44.261719 24.566406 L 0.75 24.566406 L 0.75 26.796875 L 44.261719 26.796875 L 44.261719 29.03125 L 44.261719 15.640625 L 22.847656 15.640625 L 22.847656 15.644531 " fill-opacity="1" fill-rule="nonzero"/></g><g clip-path="url(#2522cd5671)"><path fill="#ffffff" d="M 22.847656 8.921875 L 44.261719 8.921875 L 44.261719 6.707031 L 22.847656 6.707031 L 22.847656 8.921875 " fill-opacity="1" fill-rule="nonzero"/></g><g clip-path="url(#79c7942958)"><path fill="#ffffff" d="M 22.847656 4.460938 L 44.261719 4.460938 L 44.261719 2.234375 L 22.847656 2.234375 L 22.847656 4.460938 " fill-opacity="1" fill-rule="nonzero"/></g><g clip-path="url(#6ffd3805aa)"><path fill="#d21c31" d="M 44.261719 17.867188 L 0.75 17.867188 L 0.75 20.101562 L 44.261719 20.101562 L 44.261719 17.867188 " fill-opacity="1" fill-rule="nonzero"/></g><g clip-path="url(#989e47cae5)"><path fill="#d21c31" d="M 22.847656 15.640625 L 44.261719 15.640625 L 44.261719 13.398438 L 22.847656 13.398438 L 22.847656 15.640625 " fill-opacity="1" fill-rule="nonzero"/></g><g clip-path="url(#d119d2f6fd)"><path fill="#d21c31" d="M 22.847656 11.164062 L 44.261719 11.164062 L 44.261719 8.921875 L 22.847656 8.921875 L 22.847656 11.164062 " fill-opacity="1" fill-rule="nonzero"/></g><g clip-path="url(#a29e45d52c)"><path fill="#d21c31" d="M 22.847656 6.707031 L 44.261719 6.707031 L 44.261719 4.460938 L 22.847656 4.460938 L 22.847656 6.707031 " fill-opacity="1" fill-rule="nonzero"/></g><g clip-path="url(#218a5fa6cb)"><path fill="#d21c31" d="M 22.847656 -0.00390625 L 22.847656 2.234375 L 44.261719 2.234375 L 44.261719 -0.00390625 L 22.847656 -0.00390625 " fill-opacity="1" fill-rule="nonzero"/></g><g clip-path="url(#c372169665)"><path fill="#d21c31" d="M 44.261719 22.332031 L 0.75 22.332031 L 0.75 24.566406 L 44.261719 24.566406 L 44.261719 22.332031 " fill-opacity="1" fill-rule="nonzero"/></g><g clip-path="url(#03acbe3fc7)"><path fill="#d21c31" d="M 0.75 26.796875 L 0.75 29.03125 L 44.261719 29.03125 L 44.261719 26.796875 L 0.75 26.796875 " fill-opacity="1" fill-rule="nonzero"/></g><g clip-path="url(#c837630f3d)"><path fill="#363570" d="M 21.230469 1.648438 L 21.4375 2.285156 L 20.898438 1.890625 L 20.359375 2.285156 L 20.5625 1.648438 L 20.023438 1.257812 L 20.691406 1.257812 L 20.898438 0.621094 L 21.101562 1.257812 L 21.769531 1.257812 Z M 21.230469 4.785156 L 21.4375 5.417969 L 20.898438 5.027344 L 20.359375 5.417969 L 20.5625 4.785156 L 20.023438 4.390625 L 20.691406 4.390625 L 20.898438 3.757812 L 21.101562 4.390625 L 21.769531 4.390625 Z M 21.230469 7.921875 L 21.4375 8.554688 L 20.898438 8.164062 L 20.359375 8.554688 L 20.5625 7.921875 L 20.023438 7.527344 L 20.691406 7.527344 L 20.898438 6.894531 L 21.101562 7.527344 L 21.769531 7.527344 Z M 21.230469 11.058594 L 21.4375 11.691406 L 20.898438 11.300781 L 20.359375 11.691406 L 20.5625 11.058594 L 20.023438 10.664062 L 20.691406 10.664062 L 20.898438 10.03125 L 21.101562 10.664062 L 21.769531 10.664062 Z M 21.4375 14.828125 L 20.898438 14.4375 L 20.359375 14.828125 L 20.5625 14.195312 L 20.023438 13.800781 L 20.691406 13.800781 L 20.898438 13.167969 L 21.101562 13.800781 L 21.769531 13.800781 L 21.230469 14.195312 Z M 19.40625 3.210938 L 19.613281 3.84375 L 19.074219 3.453125 L 18.535156 3.84375 L 18.738281 3.210938 L 18.199219 2.816406 L 18.867188 2.816406 L 19.074219 2.183594 L 19.28125 2.816406 L 19.945312 2.816406 Z M 19.40625 6.351562 L 19.613281 6.988281 L 19.074219 6.59375 L 18.535156 6.988281 L 18.738281 6.351562 L 18.199219 5.960938 L 18.867188 5.960938 L 19.074219 5.324219 L 19.28125 5.960938 L 19.945312 5.960938 Z M 19.40625 9.496094 L 19.613281 10.128906 L 19.074219 9.738281 L 18.535156 10.128906 L 18.738281 9.496094 L 18.199219 9.101562 L 18.867188 9.101562 L 19.074219 8.46875 L 19.28125 9.101562 L 19.945312 9.101562 Z M 19.613281 13.273438 L 19.074219 12.878906 L 18.535156 13.273438 L 18.738281 12.636719 L 18.199219 12.246094 L 18.867188 12.246094 L 19.074219 11.609375 L 19.28125 12.246094 L 19.945312 12.246094 L 19.40625 12.636719 Z M 17.578125 1.648438 L 17.785156 2.285156 L 17.246094 1.890625 L 16.707031 2.285156 L 16.910156 1.648438 L 16.371094 1.257812 L 17.039062 1.257812 L 17.246094 0.621094 L 17.449219 1.257812 L 18.117188 1.257812 Z M 17.578125 4.785156 L 17.785156 5.417969 L 17.246094 5.027344 L 16.707031 5.417969 L 16.910156 4.785156 L 16.371094 4.390625 L 17.039062 4.390625 L 17.246094 3.757812 L 17.449219 4.390625 L 18.117188 4.390625 Z M 17.578125 7.921875 L 17.785156 8.554688 L 17.246094 8.164062 L 16.707031 8.554688 L 16.910156 7.921875 L 16.371094 7.527344 L 17.039062 7.527344 L 17.246094 6.894531 L 17.449219 7.527344 L 18.117188 7.527344 Z M 17.578125 11.058594 L 17.785156 11.691406 L 17.246094 11.300781 L 16.707031 11.691406 L 16.910156 11.058594 L 16.371094 10.664062 L 17.039062 10.664062 L 17.246094 10.03125 L 17.449219 10.664062 L 18.117188 10.664062 Z M 17.785156 14.828125 L 17.246094 14.4375 L 16.707031 14.828125 L 16.910156 14.195312 L 16.371094 13.800781 L 17.039062 13.800781 L 17.246094 13.167969 L 17.449219 13.800781 L 18.117188 13.800781 L 17.578125 14.195312 Z M 15.753906 3.210938 L 15.960938 3.84375 L 15.421875 3.453125 L 14.882812 3.84375 L 15.085938 3.210938 L 14.546875 2.816406 L 15.214844 2.816406 L 15.421875 2.183594 L 15.628906 2.816406 L 16.292969 2.816406 Z M 15.753906 6.351562 L 15.960938 6.988281 L 15.421875 6.59375 L 14.882812 6.988281 L 15.085938 6.351562 L 14.546875 5.960938 L 15.214844 5.960938 L 15.421875 5.324219 L 15.628906 5.960938 L 16.292969 5.960938 Z M 15.753906 9.496094 L 15.960938 10.128906 L 15.421875 9.738281 L 14.882812 10.128906 L 15.085938 9.496094 L 14.546875 9.101562 L 15.214844 9.101562 L 15.421875 8.46875 L 15.628906 9.101562 L 16.292969 9.101562 Z M 15.960938 13.273438 L 15.421875 12.878906 L 14.882812 13.273438 L 15.085938 12.636719 L 14.546875 12.246094 L 15.214844 12.246094 L 15.421875 11.609375 L 15.628906 12.246094 L 16.292969 12.246094 L 15.753906 12.636719 Z M 13.925781 1.648438 L 14.132812 2.285156 L 13.59375 1.890625 L 13.054688 2.285156 L 13.257812 1.648438 L 12.71875 1.257812 L 13.386719 1.257812 L 13.59375 0.621094 L 13.796875 1.257812 L 14.464844 1.257812 Z M 13.925781 4.785156 L 14.132812 5.417969 L 13.59375 5.027344 L 13.054688 5.417969 L 13.257812 4.785156 L 12.71875 4.390625 L 13.386719 4.390625 L 13.59375 3.757812 L 13.796875 4.390625 L 14.464844 4.390625 Z M 13.925781 7.921875 L 14.132812 8.554688 L 13.59375 8.164062 L 13.054688 8.554688 L 13.257812 7.921875 L 12.71875 7.527344 L 13.386719 7.527344 L 13.59375 6.894531 L 13.796875 7.527344 L 14.464844 7.527344 Z M 13.925781 11.058594 L 14.132812 11.691406 L 13.59375 11.300781 L 13.054688 11.691406 L 13.257812 11.058594 L 12.71875 10.664062 L 13.386719 10.664062 L 13.59375 10.03125 L 13.796875 10.664062 L 14.464844 10.664062 Z M 14.132812 14.828125 L 13.59375 14.4375 L 13.054688 14.828125 L 13.257812 14.195312 L 12.71875 13.800781 L 13.386719 13.800781 L 13.59375 13.167969 L 13.796875 13.800781 L 14.464844 13.800781 L 13.925781 14.195312 Z M 12.101562 3.210938 L 12.308594 3.84375 L 11.769531 3.453125 L 11.230469 3.84375 L 11.433594 3.210938 L 10.894531 2.816406 L 11.5625 2.816406 L 11.769531 2.183594 L 11.976562 2.816406 L 12.640625 2.816406 Z M 12.101562 6.351562 L 12.308594 6.988281 L 11.769531 6.59375 L 11.230469 6.988281 L 11.433594 6.351562 L 10.894531 5.960938 L 11.5625 5.960938 L 11.769531 5.324219 L 11.976562 5.960938 L 12.640625 5.960938 Z M 12.101562 9.496094 L 12.308594 10.128906 L 11.769531 9.738281 L 11.230469 10.128906 L 11.433594 9.496094 L 10.894531 9.101562 L 11.5625 9.101562 L 11.769531 8.46875 L 11.976562 9.101562 L 12.640625 9.101562 Z M 12.308594 13.273438 L 11.769531 12.878906 L 11.230469 13.273438 L 11.433594 12.636719 L 10.894531 12.246094 L 11.5625 12.246094 L 11.769531 11.609375 L 11.976562 12.246094 L 12.640625 12.246094 L 12.101562 12.636719 Z M 10.273438 1.648438 L 10.480469 2.285156 L 9.941406 1.890625 L 9.402344 2.285156 L 9.605469 1.648438 L 9.066406 1.257812 L 9.734375 1.257812 L 9.941406 0.621094 L 10.144531 1.257812 L 10.8125 1.257812 Z M 10.273438 4.785156 L 10.480469 5.417969 L 9.941406 5.027344 L 9.402344 5.417969 L 9.605469 4.785156 L 9.066406 4.390625 L 9.734375 4.390625 L 9.941406 3.757812 L 10.144531 4.390625 L 10.8125 4.390625 Z M 10.273438 7.921875 L 10.480469 8.554688 L 9.941406 8.164062 L 9.402344 8.554688 L 9.605469 7.921875 L 9.066406 7.527344 L 9.734375 7.527344 L 9.941406 6.894531 L 10.144531 7.527344 L 10.8125 7.527344 Z M 10.273438 11.058594 L 10.480469 11.691406 L 9.941406 11.300781 L 9.402344 11.691406 L 9.605469 11.058594 L 9.066406 10.664062 L 9.734375 10.664062 L 9.941406 10.03125 L 10.144531 10.664062 L 10.8125 10.664062 Z M 10.480469 14.828125 L 9.941406 14.4375 L 9.402344 14.828125 L 9.605469 14.195312 L 9.066406 13.800781 L 9.734375 13.800781 L 9.941406 13.167969 L 10.144531 13.800781 L 10.8125 13.800781 L 10.273438 14.195312 Z M 8.449219 3.210938 L 8.65625 3.84375 L 8.117188 3.453125 L 7.578125 3.84375 L 7.78125 3.210938 L 7.242188 2.816406 L 7.910156 2.816406 L 8.117188 2.183594 L 8.324219 2.816406 L 8.988281 2.816406 Z M 8.449219 6.351562 L 8.65625 6.988281 L 8.117188 6.59375 L 7.578125 6.988281 L 7.78125 6.351562 L 7.242188 5.960938 L 7.910156 5.960938 L 8.117188 5.324219 L 8.324219 5.960938 L 8.988281 5.960938 Z M 8.449219 9.496094 L 8.65625 10.128906 L 8.117188 9.738281 L 7.578125 10.128906 L 7.78125 9.496094 L 7.242188 9.101562 L 7.910156 9.101562 L 8.117188 8.46875 L 8.324219 9.101562 L 8.988281 9.101562 Z M 8.65625 13.273438 L 8.117188 12.878906 L 7.578125 13.273438 L 7.78125 12.636719 L 7.242188 12.246094 L 7.910156 12.246094 L 8.117188 11.609375 L 8.324219 12.246094 L 8.988281 12.246094 L 8.449219 12.636719 Z M 6.621094 1.648438 L 6.828125 2.285156 L 6.289062 1.890625 L 5.75 2.285156 L 5.953125 1.648438 L 5.414062 1.257812 L 6.082031 1.257812 L 6.289062 0.621094 L 6.492188 1.257812 L 7.160156 1.257812 Z M 6.621094 4.785156 L 6.828125 5.417969 L 6.289062 5.027344 L 5.75 5.417969 L 5.953125 4.785156 L 5.414062 4.390625 L 6.082031 4.390625 L 6.289062 3.757812 L 6.492188 4.390625 L 7.160156 4.390625 Z M 6.621094 7.921875 L 6.828125 8.554688 L 6.289062 8.164062 L 5.75 8.554688 L 5.953125 7.921875 L 5.414062 7.527344 L 6.082031 7.527344 L 6.289062 6.894531 L 6.492188 7.527344 L 7.160156 7.527344 Z M 6.621094 11.058594 L 6.828125 11.691406 L 6.289062 11.300781 L 5.75 11.691406 L 5.953125 11.058594 L 5.414062 10.664062 L 6.082031 10.664062 L 6.289062 10.03125 L 6.492188 10.664062 L 7.160156 10.664062 Z M 6.828125 14.828125 L 6.289062 14.4375 L 5.75 14.828125 L 5.953125 14.195312 L 5.414062 13.800781 L 6.082031 13.800781 L 6.289062 13.167969 L 6.492188 13.800781 L 7.160156 13.800781 L 6.621094 14.195312 Z M 4.796875 3.210938 L 5.003906 3.84375 L 4.464844 3.453125 L 3.925781 3.84375 L 4.128906 3.210938 L 3.589844 2.816406 L 4.257812 2.816406 L 4.464844 2.183594 L 4.671875 2.816406 L 5.335938 2.816406 Z M 4.796875 6.351562 L 5.003906 6.988281 L 4.464844 6.59375 L 3.925781 6.988281 L 4.128906 6.351562 L 3.589844 5.960938 L 4.257812 5.960938 L 4.464844 5.324219 L 4.671875 5.960938 L 5.335938 5.960938 Z M 4.796875 9.496094 L 5.003906 10.128906 L 4.464844 9.738281 L 3.925781 10.128906 L 4.128906 9.496094 L 3.589844 9.101562 L 4.257812 9.101562 L 4.464844 8.46875 L 4.671875 9.101562 L 5.335938 9.101562 Z M 5.003906 13.273438 L 4.464844 12.878906 L 3.925781 13.273438 L 4.128906 12.636719 L 3.589844 12.246094 L 4.257812 12.246094 L 4.464844 11.609375 L 4.671875 12.246094 L 5.335938 12.246094 L 4.796875 12.636719 Z M 2.96875 1.648438 L 3.175781 2.285156 L 2.636719 1.890625 L 2.097656 2.285156 L 2.300781 1.648438 L 1.761719 1.257812 L 2.429688 1.257812 L 2.636719 0.621094 L 2.839844 1.257812 L 3.507812 1.257812 Z M 2.96875 4.785156 L 3.175781 5.417969 L 2.636719 5.027344 L 2.097656 5.417969 L 2.300781 4.785156 L 1.761719 4.390625 L 2.429688 4.390625 L 2.636719 3.757812 L 2.839844 4.390625 L 3.507812 4.390625 Z M 2.96875 7.921875 L 3.175781 8.554688 L 2.636719 8.164062 L 2.097656 8.554688 L 2.300781 7.921875 L 1.761719 7.527344 L 2.429688 7.527344 L 2.636719 6.894531 L 2.839844 7.527344 L 3.507812 7.527344 Z M 2.96875 11.058594 L 3.175781 11.691406 L 2.636719 11.300781 L 2.097656 11.691406 L 2.300781 11.058594 L 1.761719 10.664062 L 2.429688 10.664062 L 2.636719 10.03125 L 2.839844 10.664062 L 3.507812 10.664062 Z M 3.175781 14.828125 L 2.636719 14.4375 L 2.097656 14.828125 L 2.300781 14.195312 L 1.761719 13.800781 L 2.429688 13.800781 L 2.636719 13.167969 L 2.839844 13.800781 L 3.507812 13.800781 L 2.96875 14.195312 Z M 22.847656 15.640625 L 22.792969 15.640625 L 22.792969 13.398438 L 22.847656 13.398438 L 22.847656 11.164062 L 22.792969 11.164062 L 22.792969 8.921875 L 22.847656 8.921875 L 22.847656 6.707031 L 22.792969 6.707031 L 22.792969 4.460938 L 22.847656 4.460938 L 22.847656 2.234375 L 22.792969 2.234375 L 22.792969 -0.00390625 L 0.75 -0.00390625 L 0.75 15.644531 L 22.847656 15.644531 L 22.847656 15.640625 " fill-opacity="1" fill-rule="nonzero"/></g><path fill="#363570" d="M 22.792969 15.640625 L 22.847656 15.640625 L 22.847656 13.398438 L 22.792969 13.398438 L 22.792969 15.640625 " fill-opacity="1" fill-rule="nonzero"/><path fill="#363570" d="M 22.792969 11.164062 L 22.847656 11.164062 L 22.847656 8.921875 L 22.792969 8.921875 L 22.792969 11.164062 " fill-opacity="1" fill-rule="nonzero"/><path fill="#363570" d="M 22.792969 6.707031 L 22.847656 6.707031 L 22.847656 4.460938 L 22.792969 4.460938 L 22.792969 6.707031 " fill-opacity="1" fill-rule="nonzero"/><path fill="#363570" d="M 22.847656 2.234375 L 22.847656 -0.00390625 L 22.792969 -0.00390625 L 22.792969 2.234375 L 22.847656 2.234375 " fill-opacity="1" fill-rule="nonzero"/><path fill="#ffffff" d="M 2.636719 0.621094 L 2.429688 1.257812 L 1.761719 1.257812 L 2.300781 1.648438 L 2.097656 2.285156 L 2.636719 1.890625 L 3.175781 2.285156 L 2.96875 1.648438 L 3.507812 1.257812 L 2.839844 1.257812 L 2.636719 0.621094 " fill-opacity="1" fill-rule="nonzero"/><path fill="#ffffff" d="M 6.289062 0.621094 L 6.082031 1.257812 L 5.414062 1.257812 L 5.953125 1.648438 L 5.75 2.285156 L 6.289062 1.890625 L 6.828125 2.285156 L 6.621094 1.648438 L 7.160156 1.257812 L 6.492188 1.257812 L 6.289062 0.621094 " fill-opacity="1" fill-rule="nonzero"/><path fill="#ffffff" d="M 9.941406 0.621094 L 9.734375 1.257812 L 9.066406 1.257812 L 9.605469 1.648438 L 9.402344 2.285156 L 9.941406 1.890625 L 10.480469 2.285156 L 10.273438 1.648438 L 10.8125 1.257812 L 10.144531 1.257812 L 9.941406 0.621094 " fill-opacity="1" fill-rule="nonzero"/><path fill="#ffffff" d="M 13.59375 0.621094 L 13.386719 1.257812 L 12.71875 1.257812 L 13.257812 1.648438 L 13.054688 2.285156 L 13.59375 1.890625 L 14.132812 2.285156 L 13.925781 1.648438 L 14.464844 1.257812 L 13.796875 1.257812 L 13.59375 0.621094 " fill-opacity="1" fill-rule="nonzero"/><path fill="#ffffff" d="M 17.246094 0.621094 L 17.039062 1.257812 L 16.371094 1.257812 L 16.910156 1.648438 L 16.707031 2.285156 L 17.246094 1.890625 L 17.785156 2.285156 L 17.578125 1.648438 L 18.117188 1.257812 L 17.449219 1.257812 L 17.246094 0.621094 " fill-opacity="1" fill-rule="nonzero"/><path fill="#ffffff" d="M 20.898438 0.621094 L 20.691406 1.257812 L 20.023438 1.257812 L 20.5625 1.648438 L 20.359375 2.285156 L 20.898438 1.890625 L 21.4375 2.285156 L 21.230469 1.648438 L 21.769531 1.257812 L 21.101562 1.257812 L 20.898438 0.621094 " fill-opacity="1" fill-rule="nonzero"/><path fill="#ffffff" d="M 4.464844 2.183594 L 4.257812 2.816406 L 3.589844 2.816406 L 4.128906 3.210938 L 3.925781 3.84375 L 4.464844 3.453125 L 5.003906 3.84375 L 4.796875 3.210938 L 5.335938 2.816406 L 4.671875 2.816406 L 4.464844 2.183594 " fill-opacity="1" fill-rule="nonzero"/><path fill="#ffffff" d="M 8.117188 2.183594 L 7.910156 2.816406 L 7.242188 2.816406 L 7.78125 3.210938 L 7.578125 3.84375 L 8.117188 3.453125 L 8.65625 3.84375 L 8.449219 3.210938 L 8.988281 2.816406 L 8.324219 2.816406 L 8.117188 2.183594 " fill-opacity="1" fill-rule="nonzero"/><path fill="#ffffff" d="M 11.769531 2.183594 L 11.5625 2.816406 L 10.894531 2.816406 L 11.433594 3.210938 L 11.230469 3.84375 L 11.769531 3.453125 L 12.308594 3.84375 L 12.101562 3.210938 L 12.640625 2.816406 L 11.976562 2.816406 L 11.769531 2.183594 " fill-opacity="1" fill-rule="nonzero"/><path fill="#ffffff" d="M 15.421875 2.183594 L 15.214844 2.816406 L 14.546875 2.816406 L 15.085938 3.210938 L 14.882812 3.84375 L 15.421875 3.453125 L 15.960938 3.84375 L 15.753906 3.210938 L 16.292969 2.816406 L 15.628906 2.816406 L 15.421875 2.183594 " fill-opacity="1" fill-rule="nonzero"/><path fill="#ffffff" d="M 19.074219 2.183594 L 18.867188 2.816406 L 18.199219 2.816406 L 18.738281 3.210938 L 18.535156 3.84375 L 19.074219 3.453125 L 19.613281 3.84375 L 19.40625 3.210938 L 19.945312 2.816406 L 19.28125 2.816406 L 19.074219 2.183594 " fill-opacity="1" fill-rule="nonzero"/><path fill="#ffffff" d="M 4.464844 5.324219 L 4.257812 5.960938 L 3.589844 5.960938 L 4.128906 6.351562 L 3.925781 6.988281 L 4.464844 6.59375 L 5.003906 6.988281 L 4.796875 6.351562 L 5.335938 5.960938 L 4.671875 5.960938 L 4.464844 5.324219 " fill-opacity="1" fill-rule="nonzero"/><path fill="#ffffff" d="M 8.117188 5.324219 L 7.910156 5.960938 L 7.242188 5.960938 L 7.78125 6.351562 L 7.578125 6.988281 L 8.117188 6.59375 L 8.65625 6.988281 L 8.449219 6.351562 L 8.988281 5.960938 L 8.324219 5.960938 L 8.117188 5.324219 " fill-opacity="1" fill-rule="nonzero"/><path fill="#ffffff" d="M 11.769531 5.324219 L 11.5625 5.960938 L 10.894531 5.960938 L 11.433594 6.351562 L 11.230469 6.988281 L 11.769531 6.59375 L 12.308594 6.988281 L 12.101562 6.351562 L 12.640625 5.960938 L 11.976562 5.960938 L 11.769531 5.324219 " fill-opacity="1" fill-rule="nonzero"/><path fill="#ffffff" d="M 15.421875 5.324219 L 15.214844 5.960938 L 14.546875 5.960938 L 15.085938 6.351562 L 14.882812 6.988281 L 15.421875 6.59375 L 15.960938 6.988281 L 15.753906 6.351562 L 16.292969 5.960938 L 15.628906 5.960938 L 15.421875 5.324219 " fill-opacity="1" fill-rule="nonzero"/><path fill="#ffffff" d="M 19.074219 5.324219 L 18.867188 5.960938 L 18.199219 5.960938 L 18.738281 6.351562 L 18.535156 6.988281 L 19.074219 6.59375 L 19.613281 6.988281 L 19.40625 6.351562 L 19.945312 5.960938 L 19.28125 5.960938 L 19.074219 5.324219 " fill-opacity="1" fill-rule="nonzero"/><path fill="#ffffff" d="M 4.464844 8.46875 L 4.257812 9.101562 L 3.589844 9.101562 L 4.128906 9.496094 L 3.925781 10.128906 L 4.464844 9.738281 L 5.003906 10.128906 L 4.796875 9.496094 L 5.335938 9.101562 L 4.671875 9.101562 L 4.464844 8.46875 " fill-opacity="1" fill-rule="nonzero"/><path fill="#ffffff" d="M 8.117188 8.46875 L 7.910156 9.101562 L 7.242188 9.101562 L 7.78125 9.496094 L 7.578125 10.128906 L 8.117188 9.738281 L 8.65625 10.128906 L 8.449219 9.496094 L 8.988281 9.101562 L 8.324219 9.101562 L 8.117188 8.46875 " fill-opacity="1" fill-rule="nonzero"/><path fill="#ffffff" d="M 11.769531 8.46875 L 11.5625 9.101562 L 10.894531 9.101562 L 11.433594 9.496094 L 11.230469 10.128906 L 11.769531 9.738281 L 12.308594 10.128906 L 12.101562 9.496094 L 12.640625 9.101562 L 11.976562 9.101562 L 11.769531 8.46875 " fill-opacity="1" fill-rule="nonzero"/><path fill="#ffffff" d="M 15.421875 8.46875 L 15.214844 9.101562 L 14.546875 9.101562 L 15.085938 9.496094 L 14.882812 10.128906 L 15.421875 9.738281 L 15.960938 10.128906 L 15.753906 9.496094 L 16.292969 9.101562 L 15.628906 9.101562 L 15.421875 8.46875 " fill-opacity="1" fill-rule="nonzero"/><path fill="#ffffff" d="M 19.074219 8.46875 L 18.867188 9.101562 L 18.199219 9.101562 L 18.738281 9.496094 L 18.535156 10.128906 L 19.074219 9.738281 L 19.613281 10.128906 L 19.40625 9.496094 L 19.945312 9.101562 L 19.28125 9.101562 L 19.074219 8.46875 " fill-opacity="1" fill-rule="nonzero"/><path fill="#ffffff" d="M 4.671875 12.246094 L 4.464844 11.609375 L 4.257812 12.246094 L 3.589844 12.246094 L 4.128906 12.636719 L 3.925781 13.273438 L 4.464844 12.878906 L 5.003906 13.273438 L 4.796875 12.636719 L 5.335938 12.246094 L 4.671875 12.246094 " fill-opacity="1" fill-rule="nonzero"/><path fill="#ffffff" d="M 8.324219 12.246094 L 8.117188 11.609375 L 7.910156 12.246094 L 7.242188 12.246094 L 7.78125 12.636719 L 7.578125 13.273438 L 8.117188 12.878906 L 8.65625 13.273438 L 8.449219 12.636719 L 8.988281 12.246094 L 8.324219 12.246094 " fill-opacity="1" fill-rule="nonzero"/><path fill="#ffffff" d="M 11.976562 12.246094 L 11.769531 11.609375 L 11.5625 12.246094 L 10.894531 12.246094 L 11.433594 12.636719 L 11.230469 13.273438 L 11.769531 12.878906 L 12.308594 13.273438 L 12.101562 12.636719 L 12.640625 12.246094 L 11.976562 12.246094 " fill-opacity="1" fill-rule="nonzero"/><path fill="#ffffff" d="M 15.628906 12.246094 L 15.421875 11.609375 L 15.214844 12.246094 L 14.546875 12.246094 L 15.085938 12.636719 L 14.882812 13.273438 L 15.421875 12.878906 L 15.960938 13.273438 L 15.753906 12.636719 L 16.292969 12.246094 L 15.628906 12.246094 " fill-opacity="1" fill-rule="nonzero"/><path fill="#ffffff" d="M 19.28125 12.246094 L 19.074219 11.609375 L 18.867188 12.246094 L 18.199219 12.246094 L 18.738281 12.636719 L 18.535156 13.273438 L 19.074219 12.878906 L 19.613281 13.273438 L 19.40625 12.636719 L 19.945312 12.246094 L 19.28125 12.246094 " fill-opacity="1" fill-rule="nonzero"/><path fill="#ffffff" d="M 2.636719 3.757812 L 2.429688 4.390625 L 1.761719 4.390625 L 2.300781 4.785156 L 2.097656 5.417969 L 2.636719 5.027344 L 3.175781 5.417969 L 2.96875 4.785156 L 3.507812 4.390625 L 2.839844 4.390625 L 2.636719 3.757812 " fill-opacity="1" fill-rule="nonzero"/><path fill="#ffffff" d="M 6.289062 3.757812 L 6.082031 4.390625 L 5.414062 4.390625 L 5.953125 4.785156 L 5.75 5.417969 L 6.289062 5.027344 L 6.828125 5.417969 L 6.621094 4.785156 L 7.160156 4.390625 L 6.492188 4.390625 L 6.289062 3.757812 " fill-opacity="1" fill-rule="nonzero"/><path fill="#ffffff" d="M 9.941406 3.757812 L 9.734375 4.390625 L 9.066406 4.390625 L 9.605469 4.785156 L 9.402344 5.417969 L 9.941406 5.027344 L 10.480469 5.417969 L 10.273438 4.785156 L 10.8125 4.390625 L 10.144531 4.390625 L 9.941406 3.757812 " fill-opacity="1" fill-rule="nonzero"/><path fill="#ffffff" d="M 13.59375 3.757812 L 13.386719 4.390625 L 12.71875 4.390625 L 13.257812 4.785156 L 13.054688 5.417969 L 13.59375 5.027344 L 14.132812 5.417969 L 13.925781 4.785156 L 14.464844 4.390625 L 13.796875 4.390625 L 13.59375 3.757812 " fill-opacity="1" fill-rule="nonzero"/><path fill="#ffffff" d="M 17.246094 3.757812 L 17.039062 4.390625 L 16.371094 4.390625 L 16.910156 4.785156 L 16.707031 5.417969 L 17.246094 5.027344 L 17.785156 5.417969 L 17.578125 4.785156 L 18.117188 4.390625 L 17.449219 4.390625 L 17.246094 3.757812 " fill-opacity="1" fill-rule="nonzero"/><path fill="#ffffff" d="M 20.898438 3.757812 L 20.691406 4.390625 L 20.023438 4.390625 L 20.5625 4.785156 L 20.359375 5.417969 L 20.898438 5.027344 L 21.4375 5.417969 L 21.230469 4.785156 L 21.769531 4.390625 L 21.101562 4.390625 L 20.898438 3.757812 " fill-opacity="1" fill-rule="nonzero"/><path fill="#ffffff" d="M 2.636719 6.894531 L 2.429688 7.527344 L 1.761719 7.527344 L 2.300781 7.921875 L 2.097656 8.554688 L 2.636719 8.164062 L 3.175781 8.554688 L 2.96875 7.921875 L 3.507812 7.527344 L 2.839844 7.527344 L 2.636719 6.894531 " fill-opacity="1" fill-rule="nonzero"/><path fill="#ffffff" d="M 6.289062 6.894531 L 6.082031 7.527344 L 5.414062 7.527344 L 5.953125 7.921875 L 5.75 8.554688 L 6.289062 8.164062 L 6.828125 8.554688 L 6.621094 7.921875 L 7.160156 7.527344 L 6.492188 7.527344 L 6.289062 6.894531 " fill-opacity="1" fill-rule="nonzero"/><path fill="#ffffff" d="M 9.941406 6.894531 L 9.734375 7.527344 L 9.066406 7.527344 L 9.605469 7.921875 L 9.402344 8.554688 L 9.941406 8.164062 L 10.480469 8.554688 L 10.273438 7.921875 L 10.8125 7.527344 L 10.144531 7.527344 L 9.941406 6.894531 " fill-opacity="1" fill-rule="nonzero"/><path fill="#ffffff" d="M 13.59375 6.894531 L 13.386719 7.527344 L 12.71875 7.527344 L 13.257812 7.921875 L 13.054688 8.554688 L 13.59375 8.164062 L 14.132812 8.554688 L 13.925781 7.921875 L 14.464844 7.527344 L 13.796875 7.527344 L 13.59375 6.894531 " fill-opacity="1" fill-rule="nonzero"/><path fill="#ffffff" d="M 17.246094 6.894531 L 17.039062 7.527344 L 16.371094 7.527344 L 16.910156 7.921875 L 16.707031 8.554688 L 17.246094 8.164062 L 17.785156 8.554688 L 17.578125 7.921875 L 18.117188 7.527344 L 17.449219 7.527344 L 17.246094 6.894531 " fill-opacity="1" fill-rule="nonzero"/><path fill="#ffffff" d="M 20.898438 6.894531 L 20.691406 7.527344 L 20.023438 7.527344 L 20.5625 7.921875 L 20.359375 8.554688 L 20.898438 8.164062 L 21.4375 8.554688 L 21.230469 7.921875 L 21.769531 7.527344 L 21.101562 7.527344 L 20.898438 6.894531 " fill-opacity="1" fill-rule="nonzero"/><path fill="#ffffff" d="M 2.636719 10.03125 L 2.429688 10.664062 L 1.761719 10.664062 L 2.300781 11.058594 L 2.097656 11.691406 L 2.636719 11.300781 L 3.175781 11.691406 L 2.96875 11.058594 L 3.507812 10.664062 L 2.839844 10.664062 L 2.636719 10.03125 " fill-opacity="1" fill-rule="nonzero"/><path fill="#ffffff" d="M 6.289062 10.03125 L 6.082031 10.664062 L 5.414062 10.664062 L 5.953125 11.058594 L 5.75 11.691406 L 6.289062 11.300781 L 6.828125 11.691406 L 6.621094 11.058594 L 7.160156 10.664062 L 6.492188 10.664062 L 6.289062 10.03125 " fill-opacity="1" fill-rule="nonzero"/><path fill="#ffffff" d="M 9.941406 10.03125 L 9.734375 10.664062 L 9.066406 10.664062 L 9.605469 11.058594 L 9.402344 11.691406 L 9.941406 11.300781 L 10.480469 11.691406 L 10.273438 11.058594 L 10.8125 10.664062 L 10.144531 10.664062 L 9.941406 10.03125 " fill-opacity="1" fill-rule="nonzero"/><path fill="#ffffff" d="M 13.59375 10.03125 L 13.386719 10.664062 L 12.71875 10.664062 L 13.257812 11.058594 L 13.054688 11.691406 L 13.59375 11.300781 L 14.132812 11.691406 L 13.925781 11.058594 L 14.464844 10.664062 L 13.796875 10.664062 L 13.59375 10.03125 " fill-opacity="1" fill-rule="nonzero"/><path fill="#ffffff" d="M 17.246094 10.03125 L 17.039062 10.664062 L 16.371094 10.664062 L 16.910156 11.058594 L 16.707031 11.691406 L 17.246094 11.300781 L 17.785156 11.691406 L 17.578125 11.058594 L 18.117188 10.664062 L 17.449219 10.664062 L 17.246094 10.03125 " fill-opacity="1" fill-rule="nonzero"/><path fill="#ffffff" d="M 20.898438 10.03125 L 20.691406 10.664062 L 20.023438 10.664062 L 20.5625 11.058594 L 20.359375 11.691406 L 20.898438 11.300781 L 21.4375 11.691406 L 21.230469 11.058594 L 21.769531 10.664062 L 21.101562 10.664062 L 20.898438 10.03125 " fill-opacity="1" fill-rule="nonzero"/><path fill="#ffffff" d="M 2.839844 13.800781 L 2.636719 13.167969 L 2.429688 13.800781 L 1.761719 13.800781 L 2.300781 14.195312 L 2.097656 14.828125 L 2.636719 14.4375 L 3.175781 14.828125 L 2.96875 14.195312 L 3.507812 13.800781 L 2.839844 13.800781 " fill-opacity="1" fill-rule="nonzero"/><path fill="#ffffff" d="M 6.492188 13.800781 L 6.289062 13.167969 L 6.082031 13.800781 L 5.414062 13.800781 L 5.953125 14.195312 L 5.75 14.828125 L 6.289062 14.4375 L 6.828125 14.828125 L 6.621094 14.195312 L 7.160156 13.800781 L 6.492188 13.800781 " fill-opacity="1" fill-rule="nonzero"/><path fill="#ffffff" d="M 10.144531 13.800781 L 9.941406 13.167969 L 9.734375 13.800781 L 9.066406 13.800781 L 9.605469 14.195312 L 9.402344 14.828125 L 9.941406 14.4375 L 10.480469 14.828125 L 10.273438 14.195312 L 10.8125 13.800781 L 10.144531 13.800781 " fill-opacity="1" fill-rule="nonzero"/><path fill="#ffffff" d="M 13.796875 13.800781 L 13.59375 13.167969 L 13.386719 13.800781 L 12.71875 13.800781 L 13.257812 14.195312 L 13.054688 14.828125 L 13.59375 14.4375 L 14.132812 14.828125 L 13.925781 14.195312 L 14.464844 13.800781 L 13.796875 13.800781 " fill-opacity="1" fill-rule="nonzero"/><path fill="#ffffff" d="M 17.449219 13.800781 L 17.246094 13.167969 L 17.039062 13.800781 L 16.371094 13.800781 L 16.910156 14.195312 L 16.707031 14.828125 L 17.246094 14.4375 L 17.785156 14.828125 L 17.578125 14.195312 L 18.117188 13.800781 L 17.449219 13.800781 " fill-opacity="1" fill-rule="nonzero"/><path fill="#ffffff" d="M 21.101562 13.800781 L 20.898438 13.167969 L 20.691406 13.800781 L 20.023438 13.800781 L 20.5625 14.195312 L 20.359375 14.828125 L 20.898438 14.4375 L 21.4375 14.828125 L 21.230469 14.195312 L 21.769531 13.800781 L 21.101562 13.800781 " fill-opacity="1" fill-rule="nonzero"/></svg>