<svg xmlns="http://www.w3.org/2000/svg" width="60" height="40" version="1.0" viewBox="0 0 45 30"><defs><clipPath id="a"><path d="M22 11h22.273v3H22Zm0 0"/></clipPath><clipPath id="b"><path d="M.727 15h43.546v14.031H.727Zm0 0"/></clipPath><clipPath id="c"><path d="M22 6h22.273v3H22Zm0 0"/></clipPath><clipPath id="d"><path d="M22 2h22.273v3H22Zm0 0"/></clipPath><clipPath id="e"><path d="M.727 17h43.546v4H.727Zm0 0"/></clipPath><clipPath id="f"><path d="M22 13h22.273v3H22Zm0 0"/></clipPath><clipPath id="g"><path d="M22 8h22.273v4H22Zm0 0"/></clipPath><clipPath id="h"><path d="M22 4h22.273v3H22Zm0 0"/></clipPath><clipPath id="i"><path d="M22 0h22.273v3H22Zm0 0"/></clipPath><clipPath id="j"><path d="M.727 22h43.546v3H.727Zm0 0"/></clipPath><clipPath id="k"><path d="M.727 26h43.546v3.031H.727Zm0 0"/></clipPath><clipPath id="l"><path d="M.727 0H23v16H.727Zm0 0"/></clipPath></defs><g clip-path="url(#a)"><path fill="#fff" d="M22.848 13.398h21.414v-2.234H22.848v2.234"/></g><g clip-path="url(#b)"><path fill="#fff" d="M22.848 15.645H.75v2.222h43.512v2.235H.75v2.23h43.512v2.234H.75v2.23h43.512v2.235-13.39H22.848v.004"/></g><g clip-path="url(#c)"><path fill="#fff" d="M22.848 8.922h21.414V6.707H22.848v2.215"/></g><g clip-path="url(#d)"><path fill="#fff" d="M22.848 4.46h21.414V2.235H22.848v2.227"/></g><g clip-path="url(#e)"><path fill="#d21c31" d="M44.262 17.867H.75v2.235h43.512v-2.235"/></g><g clip-path="url(#f)"><path fill="#d21c31" d="M22.848 15.64h21.414v-2.242H22.848v2.243"/></g><g clip-path="url(#g)"><path fill="#d21c31" d="M22.848 11.164h21.414V8.922H22.848v2.242"/></g><g clip-path="url(#h)"><path fill="#d21c31" d="M22.848 6.707h21.414V4.461H22.848v2.246"/></g><g clip-path="url(#i)"><path fill="#d21c31" d="M22.848-.004v2.238h21.414V-.004H22.848"/></g><g clip-path="url(#j)"><path fill="#d21c31" d="M44.262 22.332H.75v2.234h43.512v-2.234"/></g><g clip-path="url(#k)"><path fill="#d21c31" d="M.75 26.797v2.234h43.512v-2.234H.75"/></g><g clip-path="url(#l)"><path fill="#363570" d="m21.23 1.648.207.637-.539-.394-.539.394.203-.637-.539-.39h.668l.207-.637.204.637h.668Zm0 3.137.207.633-.539-.39-.539.39.203-.633-.539-.394h.668l.207-.633.204.633h.668Zm0 3.137.207.633-.539-.39-.539.39.203-.633-.539-.395h.668l.207-.632.204.632h.668Zm0 3.137.207.632-.539-.39-.539.39.203-.632-.539-.395h.668l.207-.633.204.633h.668Zm.207 3.77-.539-.392-.539.391.203-.633-.539-.394h.668l.207-.633.204.633h.668l-.54.394ZM19.407 3.21l.206.633-.539-.39-.539.39.203-.633-.539-.395h.668l.207-.632.207.632h.664Zm0 3.14.206.637-.539-.394-.539.394.203-.636-.539-.391h.668l.207-.637.207.637h.664Zm0 3.145.206.633-.539-.39-.539.39.203-.633-.539-.394h.668l.207-.633.207.633h.664Zm.206 3.777-.539-.394-.539.394.203-.636-.539-.39h.668l.207-.638.207.637h.664l-.539.39ZM17.578 1.648l.207.637-.539-.394-.539.394.203-.637-.539-.39h.668l.207-.637.203.637h.668Zm0 3.137.207.633-.539-.39-.539.39.203-.633-.539-.394h.668l.207-.633.203.633h.668Zm0 3.137.207.633-.539-.39-.539.39.203-.633-.539-.395h.668l.207-.632.203.632h.668Zm0 3.137.207.632-.539-.39-.539.39.203-.632-.539-.395h.668l.207-.633.203.633h.668Zm.207 3.77-.539-.392-.539.391.203-.633-.539-.394h.668l.207-.633.203.633h.668l-.539.394ZM15.754 3.21l.207.633-.54-.39-.538.39.203-.633-.54-.395h.669l.207-.632.207.632h.664Zm0 3.14.207.637-.54-.394-.538.394.203-.636-.54-.391h.669l.207-.637.207.637h.664Zm0 3.145.207.633-.54-.39-.538.39.203-.633-.54-.394h.669l.207-.633.207.633h.664Zm.207 3.777-.54-.394-.538.394.203-.636-.54-.39h.669l.207-.638.207.637h.664l-.54.39ZM13.926 1.648l.207.637-.54-.394-.538.394.203-.637-.54-.39h.669l.207-.637.203.637h.668Zm0 3.137.207.633-.54-.39-.538.39.203-.633-.54-.394h.669l.207-.633.203.633h.668Zm0 3.137.207.633-.54-.39-.538.39.203-.633-.54-.395h.669l.207-.632.203.632h.668Zm0 3.137.207.632-.54-.39-.538.39.203-.632-.54-.395h.669l.207-.633.203.633h.668Zm.207 3.77-.54-.392-.538.391.203-.633-.54-.394h.669l.207-.633.203.633h.668l-.54.394ZM12.102 3.21l.207.633-.54-.39-.539.39.204-.633-.54-.395h.668l.208-.632.207.632h.664Zm0 3.14.207.637-.54-.394-.539.394.204-.636-.54-.391h.668l.208-.637.207.637h.664Zm0 3.145.207.633-.54-.39-.539.39.204-.633-.54-.394h.668l.208-.633.207.633h.664Zm.207 3.777-.54-.394-.539.394.204-.636-.54-.39h.668l.208-.638.207.637h.664l-.54.39ZM10.273 1.648l.207.637-.539-.394-.539.394.203-.637-.539-.39h.668L9.941.62l.204.637h.668Zm0 3.137.207.633-.539-.39-.539.39.203-.633-.539-.394h.668l.207-.633.204.633h.668Zm0 3.137.207.633-.539-.39-.539.39.203-.633-.539-.395h.668l.207-.632.204.632h.668Zm0 3.137.207.632-.539-.39-.539.39.203-.632-.539-.395h.668l.207-.633.204.633h.668Zm.207 3.77-.539-.392-.539.391.203-.633-.539-.394h.668l.207-.633.204.633h.668l-.54.394ZM8.45 3.21l.206.633-.539-.39-.539.39.203-.633-.539-.395h.668l.207-.632.207.632h.664Zm0 3.14.206.637-.539-.394-.539.394.203-.636-.539-.391h.668l.207-.637.207.637h.664Zm0 3.145.206.633-.539-.39-.539.39.203-.633-.539-.394h.668l.207-.633.207.633h.664Zm.206 3.777-.539-.394-.539.394.203-.636-.539-.39h.668l.207-.638.207.637h.664l-.539.39ZM6.621 1.648l.207.637-.539-.394-.539.394.203-.637-.539-.39h.668L6.289.62l.203.637h.668Zm0 3.137.207.633-.539-.39-.539.39.203-.633-.539-.394h.668l.207-.633.203.633h.668Zm0 3.137.207.633-.539-.39-.539.39.203-.633-.539-.395h.668l.207-.632.203.632h.668Zm0 3.137.207.632-.539-.39-.539.39.203-.632-.539-.395h.668l.207-.633.203.633h.668Zm.207 3.77-.539-.392-.539.391.203-.633-.539-.394h.668l.207-.633.203.633h.668l-.539.394ZM4.797 3.21l.207.633-.54-.39-.538.39.203-.633-.54-.395h.669l.207-.632.207.632h.664Zm0 3.14.207.637-.54-.394-.538.394.203-.636-.54-.391h.669l.207-.637.207.637h.664Zm0 3.145.207.633-.54-.39-.538.39.203-.633-.54-.394h.669l.207-.633.207.633h.664Zm.207 3.777-.54-.394-.538.394.203-.636-.54-.39h.669l.207-.638.207.637h.664l-.54.39ZM2.969 1.648l.207.637-.54-.394-.538.394.203-.637-.54-.39h.669L2.637.62l.203.637h.668Zm0 3.137.207.633-.54-.39-.538.39.203-.633-.54-.394h.669l.207-.633.203.633h.668Zm0 3.137.207.633-.54-.39-.538.39.203-.633-.54-.395h.669l.207-.632.203.632h.668Zm0 3.137.207.632-.54-.39-.538.39.203-.632-.54-.395h.669l.207-.633.203.633h.668Zm.207 3.77-.54-.392-.538.391.203-.633-.54-.394h.669l.207-.633.203.633h.668l-.54.394Zm19.672.812h-.055v-2.243h.055v-2.234h-.055V8.922h.055V6.707h-.055V4.461h.055V2.234h-.055V-.004H.75v15.649h22.098v-.004"/></g><path fill="#363570" d="M22.793 15.64h.055v-2.242h-.055v2.243M22.793 11.164h.055V8.922h-.055v2.242M22.793 6.707h.055V4.461h-.055v2.246M22.848 2.234V-.004h-.055v2.238h.055"/><path fill="#fff" d="m2.637.621-.207.637h-.668l.539.39-.203.637.539-.394.539.394-.207-.637.539-.39H2.84L2.637.62M6.29.621l-.208.637h-.668l.54.39-.204.637.54-.394.538.394-.207-.637.54-.39h-.669L6.29.62M9.941.621l-.207.637h-.668l.54.39-.204.637.54-.394.538.394-.207-.637.54-.39h-.668L9.94.62M13.594.621l-.207.637h-.668l.539.39-.203.637.539-.394.539.394-.207-.637.539-.39h-.668L13.594.62M17.246.621l-.207.637h-.668l.54.39-.204.637.54-.394.538.394-.207-.637.54-.39h-.669L17.246.62M20.898.621l-.207.637h-.668l.54.39-.204.637.54-.394.538.394-.207-.637.54-.39h-.668L20.898.62M4.465 2.184l-.207.632H3.59l.539.395-.203.633.539-.39.539.39-.207-.633.539-.395h-.664l-.207-.632M8.117 2.184l-.207.632h-.668l.54.395-.204.633.54-.39.538.39-.207-.633.54-.395h-.665l-.207-.632M11.77 2.184l-.207.632h-.668l.539.395-.204.633.54-.39.539.39-.207-.633.539-.395h-.664l-.207-.632M15.422 2.184l-.207.632h-.668l.539.395-.203.633.539-.39.539.39-.207-.633.539-.395h-.664l-.207-.632M19.074 2.184l-.207.632H18.2l.54.395-.204.633.54-.39.538.39-.207-.633.54-.395h-.665l-.207-.632M4.465 5.324l-.207.637H3.59l.539.39-.203.637.539-.394.539.394-.207-.636.539-.391h-.664l-.207-.637M8.117 5.324l-.207.637h-.668l.54.39-.204.637.54-.394.538.394-.207-.636.54-.391h-.665l-.207-.637M11.77 5.324l-.207.637h-.668l.539.39-.204.637.54-.394.539.394-.207-.636.539-.391h-.664l-.207-.637M15.422 5.324l-.207.637h-.668l.539.39-.203.637.539-.394.539.394-.207-.636.539-.391h-.664l-.207-.637M19.074 5.324l-.207.637H18.2l.54.39-.204.637.54-.394.538.394-.207-.636.54-.391h-.665l-.207-.637M4.465 8.469l-.207.633H3.59l.539.394-.203.633.539-.39.539.39-.207-.633.539-.394h-.664l-.207-.633M8.117 8.469l-.207.633h-.668l.54.394-.204.633.54-.39.538.39-.207-.633.54-.394h-.665l-.207-.633M11.77 8.469l-.207.633h-.668l.539.394-.204.633.54-.39.539.39-.207-.633.539-.394h-.664l-.207-.633M15.422 8.469l-.207.633h-.668l.539.394-.203.633.539-.39.539.39-.207-.633.539-.394h-.664l-.207-.633M19.074 8.469l-.207.633H18.2l.54.394-.204.633.54-.39.538.39-.207-.633.54-.394h-.665l-.207-.633M4.672 12.246l-.207-.637-.207.637H3.59l.539.39-.203.637.539-.394.539.394-.207-.636.539-.39h-.664M8.324 12.246l-.207-.637-.207.637h-.668l.54.39-.204.637.54-.394.538.394-.207-.636.54-.39h-.665M11.977 12.246l-.207-.637-.207.637h-.668l.539.39-.204.637.54-.394.539.394-.207-.636.539-.39h-.664M15.629 12.246l-.207-.637-.207.637h-.668l.539.39-.203.637.539-.394.539.394-.207-.636.539-.39h-.664M19.281 12.246l-.207-.637-.207.637H18.2l.54.39-.204.637.54-.394.538.394-.207-.636.54-.39h-.665M2.637 3.758l-.207.633h-.668l.539.394-.203.633.539-.39.539.39-.207-.633.539-.394H2.84l-.203-.633M6.29 3.758l-.208.633h-.668l.54.394-.204.633.54-.39.538.39-.207-.633.54-.394h-.669l-.203-.633M9.941 3.758l-.207.633h-.668l.54.394-.204.633.54-.39.538.39-.207-.633.54-.394h-.668l-.204-.633M13.594 3.758l-.207.633h-.668l.539.394-.203.633.539-.39.539.39-.207-.633.539-.394h-.668l-.203-.633M17.246 3.758l-.207.633h-.668l.54.394-.204.633.54-.39.538.39-.207-.633.54-.394h-.669l-.203-.633M20.898 3.758l-.207.633h-.668l.54.394-.204.633.54-.39.538.39-.207-.633.54-.394h-.668l-.204-.633M2.637 6.895l-.207.632h-.668l.539.395-.203.633.539-.39.539.39-.207-.633.539-.395H2.84l-.203-.632M6.29 6.895l-.208.632h-.668l.54.395-.204.633.54-.39.538.39-.207-.633.54-.395h-.669l-.203-.632M9.941 6.895l-.207.632h-.668l.54.395-.204.633.54-.39.538.39-.207-.633.54-.395h-.668l-.204-.632M13.594 6.895l-.207.632h-.668l.539.395-.203.633.539-.39.539.39-.207-.633.539-.395h-.668l-.203-.632M17.246 6.895l-.207.632h-.668l.54.395-.204.633.54-.39.538.39-.207-.633.54-.395h-.669l-.203-.632M20.898 6.895l-.207.632h-.668l.54.395-.204.633.54-.39.538.39-.207-.633.54-.395h-.668l-.204-.632M2.637 10.031l-.207.633h-.668l.539.395-.203.632.539-.39.539.39-.207-.632.539-.395H2.84l-.203-.633M6.29 10.031l-.208.633h-.668l.54.395-.204.632.54-.39.538.39-.207-.632.54-.395h-.669l-.203-.633M9.941 10.031l-.207.633h-.668l.54.395-.204.632.54-.39.538.39-.207-.632.54-.395h-.668l-.204-.633M13.594 10.031l-.207.633h-.668l.539.395-.203.632.539-.39.539.39-.207-.632.539-.395h-.668l-.203-.633M17.246 10.031l-.207.633h-.668l.54.395-.204.632.54-.39.538.39-.207-.632.54-.395h-.669l-.203-.633M20.898 10.031l-.207.633h-.668l.54.395-.204.632.54-.39.538.39-.207-.632.54-.395h-.668l-.204-.633M2.84 13.8l-.203-.632-.207.633h-.668l.539.394-.203.633.539-.39.539.39-.207-.633.539-.394H2.84M6.492 13.8l-.203-.632-.207.633h-.668l.54.394-.204.633.54-.39.538.39-.207-.633.54-.394h-.669M10.145 13.8l-.204-.632-.207.633h-.668l.54.394-.204.633.54-.39.538.39-.207-.633.54-.394h-.668M13.797 13.8l-.203-.632-.207.633h-.668l.539.394-.203.633.539-.39.539.39-.207-.633.539-.394h-.668M17.45 13.8l-.204-.632-.207.633h-.668l.54.394-.204.633.54-.39.538.39-.207-.633.54-.394h-.669M21.102 13.8l-.204-.632-.207.633h-.668l.54.394-.204.633.54-.39.538.39-.207-.633.54-.394h-.668"/></svg>